<svg xmlns="http://www.w3.org/2000/svg" viewBox="0 0 64 64" role="img" aria-label="AItewan">
  <defs>
    <linearGradient id="bg" x1="0" y1="0" x2="1" y2="1">
      <stop offset="0" stop-color="#1e3a8a" />
      <stop offset="1" stop-color="#0891b2" />
    </linearGradient>
  </defs>
  <rect width="64" height="64" rx="15" fill="url(#bg)" />
  <!-- AI-assisted tumor contour mark -->
  <path
    d="M33 14c8 0 17 6 16 15-1 7 4 11-3 16-6 5-17 5-23-1-6-5-7-15-3-21 3-6 7-9 13-9Z"
    fill="none"
    stroke="#ffffff"
    stroke-width="2.4"
    stroke-linejoin="round"
    opacity="0.95"
  />
  <path
    d="M32 24c5 0 9 4 9 9s-4 9-9 9-9-4-9-9 4-9 9-9Z"
    fill="none"
    stroke="#a3f0fb"
    stroke-width="2"
    stroke-dasharray="3 3"
  />
  <circle cx="32" cy="33" r="3.4" fill="#ffffff" />
</svg>
